<svg width="303" height="81" viewBox="0 0 303 81" fill="none" xmlns="http://www.w3.org/2000/svg">
<path d="M76.7692 60.5692C74.1436 59.5846 72.1333 58.3333 70.7385 56.8154C68.4821 53.5333 67.1897 49.8615 66.8615 45.8C66.5333 41.6974 66.5538 37.4513 66.9231 33.0615C67.6615 29.6564 69.1179 27.2154 71.2923 25.7385C73.4256 23.8103 75.8872 22.6615 78.6769 22.2923C81.5077 21.8821 84.5231 21.9436 87.7231 22.4769C89.241 22.8872 90.5744 23.5026 91.7231 24.3231C92.8718 25.1436 93.8154 26.0462 94.5538 27.0308C95.0872 27.9333 95.1897 29.0615 94.8615 30.4154C94.3692 31.441 93.6718 32.0769 92.7692 32.3231C91.9077 32.5282 90.9641 32.6308 89.9385 32.6308C88.4615 31.8923 86.9641 31.1744 85.4462 30.4769C83.9692 29.7385 82.1846 29.6154 80.0923 30.1077C78 30.6 76.6462 31.318 76.0308 32.2615C74.5128 34.0256 73.7128 36.1385 73.6308 38.6C73.5897 41.0615 73.7538 43.4821 74.1231 45.8615C74.5744 48.4872 75.4564 50.6205 76.7692 52.2615C78.041 53.2872 79.5385 53.7385 81.2615 53.6154C83.0256 53.4923 84.8513 53.2256 86.7385 52.8154L89.2 50.4154H92.2154C93.241 50.9077 93.8769 51.6051 94.1231 52.5077C94.4103 53.3692 94.4103 54.3128 94.1231 55.3385C93.4256 57.1846 92.1333 58.641 90.2462 59.7077C85.4462 60.5692 80.9538 60.8564 76.7692 60.5692ZM100.864 61.1846L99.7568 60.4462L98.6491 57.8C97.9517 54.0667 97.8081 41.9846 98.2183 21.5538L99.326 18.9077C100.434 18.1282 101.829 17.8821 103.511 18.1692C105.029 20.4256 105.788 23.0103 105.788 25.9231C105.788 28.7949 105.788 31.6256 105.788 34.4154C108.741 33.5128 112.147 33.3897 116.003 34.0462C116.003 31.7897 115.921 29.5333 115.757 27.2769C115.634 24.9795 116.085 22.8256 117.111 20.8154C117.808 19.7077 119.182 19.441 121.234 20.0154L123.141 21.9846C123.921 32.8974 124.044 45.0821 123.511 58.5385C123.018 59.5641 122.321 60.2 121.418 60.4462C120.557 60.6923 119.613 60.6923 118.588 60.4462L117.48 59.7077C116.7 56.9179 116.311 53.9641 116.311 50.8462C116.311 47.6872 116.208 44.6103 116.003 41.6154C112.598 40.4256 109.193 40.0359 105.788 40.4462C105.5 43.9333 105.48 47.4615 105.726 51.0308C106.013 54.559 105.521 57.8205 104.249 60.8154C103.223 61.1436 102.095 61.2667 100.864 61.1846ZM137.021 60.8769L134.375 59.7077C133.144 58.3949 132.898 57 133.637 55.5231L134.375 54.4154L138.191 53.6769C137.616 50.4359 137.616 42.0256 138.191 28.4462C137.165 28.4462 136.139 28.3846 135.114 28.2615C134.129 28.0974 133.247 27.7692 132.467 27.2769C131.524 25.9231 131.278 24.5487 131.729 23.1538L132.467 21.9846C133.247 21.4513 134.252 21.1846 135.483 21.1846C136.755 21.1846 137.883 21.1846 138.867 21.1846C140.385 21.7179 142.026 21.8615 143.791 21.6154C145.555 21.3282 146.949 21.841 147.975 23.1538C148.467 24.1385 148.591 25.2667 148.344 26.5385L145.329 28.4462C145.534 39.9333 145.534 48.3436 145.329 53.6769L147.606 55.2154C148.18 56.2821 148.303 57.4103 147.975 58.6C146.703 60.1179 145.062 60.8769 143.052 60.8769C141.042 60.8769 139.032 60.8769 137.021 60.8769ZM158.62 61.4308L157.513 60.6308L156.774 59.5231C156.159 55.9538 156.159 44.5077 156.774 25.1846C156.938 23.6256 157.697 22.3538 159.051 21.3692C161.02 20.6308 163.728 20.2205 167.174 20.1385C170.661 20.0154 174.231 21.3077 177.882 24.0154C179.646 26.0667 180.651 28.4872 180.897 31.2769C181.184 34.0256 180.631 36.6513 179.236 39.1538C177.841 41.6564 175.748 43.4821 172.959 44.6308C170.21 45.7385 167.195 46.1692 163.913 45.9231C163.666 48.4256 163.666 51.0718 163.913 53.8615C164.2 56.6103 163.564 59.0103 162.005 61.0615L158.62 61.4308ZM171.851 28.2C168.856 26.8462 166.21 26.7231 163.913 27.8308V38.7846C164.938 39.1949 166.661 39.0923 169.082 38.4769C175.441 35.441 176.364 32.0154 171.851 28.2ZM194.777 60.5692C192.151 59.5846 190.141 58.3333 188.746 56.8154C186.49 53.5333 185.198 49.8615 184.869 45.8C184.541 41.6974 184.562 37.4513 184.931 33.0615C185.669 29.6564 187.126 27.2154 189.3 25.7385C191.433 23.8103 193.895 22.6615 196.685 22.2923C199.516 21.8821 202.531 21.9436 205.731 22.4769C207.249 22.8872 208.582 23.5026 209.731 24.3231C210.88 25.1436 211.823 26.0462 212.562 27.0308C213.095 27.9333 213.198 29.0615 212.869 30.4154C212.377 31.441 211.68 32.0769 210.777 32.3231C209.916 32.5282 208.972 32.6308 207.946 32.6308C206.469 31.8923 204.972 31.1744 203.454 30.4769C201.977 29.7385 200.192 29.6154 198.1 30.1077C196.008 30.6 194.654 31.318 194.039 32.2615C192.521 34.0256 191.721 36.1385 191.639 38.6C191.598 41.0615 191.762 43.4821 192.131 45.8615C192.582 48.4872 193.464 50.6205 194.777 52.2615C196.049 53.2872 197.546 53.7385 199.269 53.6154C201.033 53.4923 202.859 53.2256 204.746 52.8154L207.208 50.4154H210.223C211.249 50.9077 211.885 51.6051 212.131 52.5077C212.418 53.3692 212.418 54.3128 212.131 55.3385C211.433 57.1846 210.141 58.641 208.254 59.7077C203.454 60.5692 198.962 60.8564 194.777 60.5692ZM218.872 61.1846L217.765 60.4462L216.657 57.8C215.959 54.0667 215.816 41.9846 216.226 21.5538L217.334 18.9077C218.442 18.1282 219.836 17.8821 221.518 18.1692C223.036 20.4256 223.795 23.0103 223.795 25.9231C223.795 28.7949 223.795 31.6256 223.795 34.4154C226.749 33.5128 230.154 33.3897 234.011 34.0462C234.011 31.7897 233.929 29.5333 233.765 27.2769C233.642 24.9795 234.093 22.8256 235.118 20.8154C235.816 19.7077 237.19 19.441 239.242 20.0154L241.149 21.9846C241.929 32.8974 242.052 45.0821 241.518 58.5385C241.026 59.5641 240.329 60.2 239.426 60.4462C238.565 60.6923 237.621 60.6923 236.595 60.4462L235.488 59.7077C234.708 56.9179 234.318 53.9641 234.318 50.8462C234.318 47.6872 234.216 44.6103 234.011 41.6154C230.606 40.4256 227.201 40.0359 223.795 40.4462C223.508 43.9333 223.488 47.4615 223.734 51.0308C224.021 54.559 223.529 57.8205 222.257 60.8154C221.231 61.1436 220.103 61.2667 218.872 61.1846ZM255.029 60.8769L252.383 59.7077C251.152 58.3949 250.906 57 251.644 55.5231L252.383 54.4154L256.198 53.6769C255.624 50.4359 255.624 42.0256 256.198 28.4462C255.173 28.4462 254.147 28.3846 253.121 28.2615C252.137 28.0974 251.255 27.7692 250.475 27.2769C249.532 25.9231 249.285 24.5487 249.737 23.1538L250.475 21.9846C251.255 21.4513 252.26 21.1846 253.491 21.1846C254.762 21.1846 255.891 21.1846 256.875 21.1846C258.393 21.7179 260.034 21.8615 261.798 21.6154C263.562 21.3282 264.957 21.841 265.983 23.1538C266.475 24.1385 266.598 25.2667 266.352 26.5385L263.337 28.4462C263.542 39.9333 263.542 48.3436 263.337 53.6769L265.614 55.2154C266.188 56.2821 266.311 57.4103 265.983 58.6C264.711 60.1179 263.07 60.8769 261.06 60.8769C259.05 60.8769 257.039 60.8769 255.029 60.8769ZM276.628 61.4308L275.52 60.6308L274.782 59.5231C274.167 55.9538 274.167 44.5077 274.782 25.1846C274.946 23.6256 275.705 22.3538 277.059 21.3692C279.028 20.6308 281.736 20.2205 285.182 20.1385C288.669 20.0154 292.238 21.3077 295.89 24.0154C297.654 26.0667 298.659 28.4872 298.905 31.2769C299.192 34.0256 298.638 36.6513 297.243 39.1538C295.849 41.6564 293.756 43.4821 290.967 44.6308C288.218 45.7385 285.202 46.1692 281.92 45.9231C281.674 48.4256 281.674 51.0718 281.92 53.8615C282.208 56.6103 281.572 59.0103 280.013 61.0615L276.628 61.4308ZM289.859 28.2C286.864 26.8462 284.218 26.7231 281.92 27.8308V38.7846C282.946 39.1949 284.669 39.0923 287.09 38.4769C293.449 35.441 294.372 32.0154 289.859 28.2Z" fill="black"/>
<path d="M26.1919 27.9361C26.6516 28.4979 27.0694 29.0786 27.4463 29.6781C28.6568 27.0968 30.2184 24.4932 32.1335 21.866C32.8917 20.8257 33.6511 19.8795 34.4115 19.0202C32.3536 15.8723 30.4107 12.5705 28.5934 9.12638L28.5655 9.07231C28.051 8.09668 26.7622 8.10373 26.2563 9.08524C26.2112 9.17222 26.1661 9.25921 26.121 9.34619C23.5691 14.2608 20.7658 18.8921 17.7349 23.2037C21.0247 23.5022 23.844 25.0785 26.1919 27.9361Z" fill="black"/>
<path d="M51.5145 41.4632C52.1611 40.8814 52.1611 39.7988 51.5145 39.2158C46.5868 34.7819 42.006 29.6675 37.8312 23.963C37.3683 24.5202 36.899 25.1244 36.4232 25.7767C32.0239 31.7551 29.8243 37.422 29.8243 42.7786C29.8243 45.3669 30.5847 47.5933 32.1066 49.4587C33.664 51.3841 35.5435 52.348 37.7432 52.348C39.1255 52.348 40.5131 52.0612 41.9062 51.4911C44.9339 47.8507 48.1431 44.4971 51.5145 41.4632Z" fill="black"/>
<path d="M22.205 32.2088C20.6477 30.2834 18.7681 29.3196 16.5685 29.3196C15.1862 29.3196 13.7985 29.6064 12.4055 30.1765C9.37668 33.818 6.16745 37.1705 2.79604 40.2055C2.14947 40.7873 2.14947 41.8699 2.79604 42.453C7.72374 46.8868 12.3045 52.0012 16.4793 57.7057C16.9422 57.1486 17.4116 56.5444 17.8874 55.892C22.2866 49.9136 24.4863 44.2467 24.4863 38.8902C24.4874 36.3018 23.7269 34.0755 22.205 32.2088Z" fill="black"/>
<path d="M28.1187 53.7327C27.659 53.1708 27.2412 52.5901 26.8642 51.9906C25.6538 54.572 24.0921 57.1756 22.1771 59.8028C21.4188 60.843 20.6595 61.7893 19.899 62.6485C21.9569 65.7964 23.8998 69.0983 25.7171 72.5424L25.745 72.5964C26.2595 73.5721 27.5484 73.565 28.0542 72.5835C28.0993 72.4965 28.1445 72.4095 28.1896 72.3226C30.7415 67.408 33.5447 62.7767 36.5757 58.4651C33.287 58.1677 30.4676 56.5902 28.1187 53.7327Z" fill="black"/>
</svg>
